<svg width="5" height="8" viewBox="0 0 5 8" fill="none" xmlns="http://www.w3.org/2000/svg">
<path d="M4.62835 3.98884C4.67299 4.03348 4.69531 4.08482 4.69531 4.14286C4.69531 4.20089 4.67299 4.25223 4.62835 4.29688L1.50781 7.41741C1.46317 7.46205 1.41183 7.48438 1.35379 7.48438C1.29576 7.48438 1.24442 7.46205 1.19978 7.41741L0.864955 7.08259C0.820312 7.03795 0.797991 6.98661 0.797991 6.92857C0.797991 6.87054 0.820312 6.8192 0.864955 6.77455L3.49665 4.14286L0.864955 1.51116C0.820312 1.46652 0.797991 1.41518 0.797991 1.35714C0.797991 1.29911 0.820312 1.24777 0.864955 1.20312L1.19978 0.868304C1.24442 0.823661 1.29576 0.801339 1.35379 0.801339C1.41183 0.801339 1.46317 0.823661 1.50781 0.868304L4.62835 3.98884Z" fill="#83858F"/>
</svg>
