<svg width="14" height="11" viewBox="0 0 14 11" fill="none" xmlns="http://www.w3.org/2000/svg">
<path d="M7.73438 1.40625C7.04167 1.13542 6.29688 1 5.5 1C4.70312 1 3.95833 1.13542 3.26563 1.40625C2.57292 1.67708 2.02083 2.04427 1.60938 2.50781C1.20313 2.97135 1 3.46875 1 4C1 4.42708 1.13802 4.83854 1.41406 5.23437C1.6901 5.63021 2.07812 5.97396 2.57812 6.26563L3.33594 6.70313L3.0625 7.35938C3.23958 7.25521 3.40104 7.15365 3.54687 7.05469L3.89063 6.8125L4.30469 6.89062C4.71094 6.96354 5.10937 7 5.5 7C6.29688 7 7.04167 6.86458 7.73438 6.59375C8.42708 6.32292 8.97656 5.95573 9.38281 5.49219C9.79427 5.02865 10 4.53125 10 4C10 3.46875 9.79427 2.97135 9.38281 2.50781C8.97656 2.04427 8.42708 1.67708 7.73438 1.40625ZM2.73438 0.539062C3.58333 0.179687 4.50521 -2.38419e-07 5.5 -2.38419e-07C6.49479 -2.38419e-07 7.41406 0.179687 8.25781 0.539062C9.10677 0.893229 9.77604 1.3776 10.2656 1.99219C10.7552 2.60677 11 3.27604 11 4C11 4.72396 10.7552 5.39323 10.2656 6.00781C9.77604 6.6224 9.10677 7.10938 8.25781 7.46875C7.41406 7.82292 6.49479 8 5.5 8C5.05208 8 4.59375 7.95833 4.125 7.875C3.47917 8.33333 2.75521 8.66667 1.95313 8.875C1.76563 8.92187 1.54167 8.96354 1.28125 9H1.25781C1.20052 9 1.14583 8.97917 1.09375 8.9375C1.04687 8.89583 1.01823 8.84115 1.00781 8.77344C1.0026 8.75781 1 8.74219 1 8.72656C1 8.70573 1 8.6875 1 8.67187C1.00521 8.65625 1.01042 8.64063 1.01562 8.625C1.02604 8.60938 1.03385 8.59635 1.03906 8.58594C1.04427 8.57552 1.05208 8.5625 1.0625 8.54688C1.07813 8.52604 1.08854 8.51302 1.09375 8.50781C1.10417 8.4974 1.11719 8.48438 1.13281 8.46875C1.14844 8.44792 1.15885 8.4349 1.16406 8.42969C1.1901 8.39844 1.25 8.33333 1.34375 8.23438C1.4375 8.13542 1.50521 8.0599 1.54688 8.00781C1.58854 7.95052 1.64583 7.875 1.71875 7.78125C1.79688 7.68229 1.86198 7.58073 1.91406 7.47656C1.97135 7.3724 2.02604 7.25781 2.07812 7.13281C1.43229 6.75781 0.924479 6.29687 0.554688 5.75C0.184896 5.20312 0 4.61979 0 4C0 3.27604 0.244792 2.60677 0.734375 1.99219C1.22396 1.3776 1.89063 0.893229 2.73438 0.539062ZM11.9219 9.13281C11.974 9.25781 12.026 9.3724 12.0781 9.47656C12.1354 9.58073 12.2005 9.68229 12.2734 9.78125C12.3516 9.875 12.4115 9.94792 12.4531 10C12.4948 10.0573 12.5625 10.1354 12.6563 10.2344C12.75 10.3333 12.8099 10.3984 12.8359 10.4297C12.8411 10.4349 12.8516 10.4453 12.8672 10.4609C12.8828 10.4818 12.8932 10.4948 12.8984 10.5C12.9089 10.5104 12.9193 10.5234 12.9297 10.5391C12.9453 10.5599 12.9557 10.5755 12.9609 10.5859C12.9661 10.5964 12.9714 10.6094 12.9766 10.625C12.987 10.6406 12.9922 10.6562 12.9922 10.6719C12.9974 10.6875 13 10.7031 13 10.7188C13 10.7396 12.9974 10.7578 12.9922 10.7734C12.9766 10.8464 12.9427 10.9036 12.8906 10.9453C12.8385 10.987 12.7813 11.0052 12.7187 11C12.4583 10.9635 12.2344 10.9219 12.0469 10.875C11.2448 10.6667 10.5208 10.3333 9.875 9.875C9.40625 9.95833 8.94792 10 8.5 10C7.08854 10 5.85938 9.65625 4.8125 8.96875C5.11458 8.98958 5.34375 9 5.5 9C6.33854 9 7.14323 8.88281 7.91406 8.64844C8.6849 8.41406 9.3724 8.07813 9.97656 7.64063C10.6276 7.16146 11.1276 6.60938 11.4766 5.98437C11.8255 5.35938 12 4.69792 12 4C12 3.59896 11.9401 3.20312 11.8203 2.8125C12.4922 3.18229 13.0234 3.64583 13.4141 4.20312C13.8047 4.76042 14 5.35937 14 6C14 6.625 13.8151 7.21094 13.4453 7.75781C13.0755 8.29948 12.5677 8.75781 11.9219 9.13281Z" fill="#54555E"/>
</svg>
