<svg width="18" height="15" viewBox="0 0 18 15" fill="none" xmlns="http://www.w3.org/2000/svg">
<path d="M16.7143 12.6786V4.96429C16.5 5.20536 16.269 5.42634 16.0212 5.62723C14.2266 7.0067 12.8002 8.13839 11.7422 9.02232C11.4007 9.31027 11.1228 9.5346 10.9085 9.69531C10.6942 9.85603 10.4029 10.0201 10.0346 10.1875C9.67299 10.3482 9.33147 10.4286 9.01004 10.4286H9H8.98996C8.66853 10.4286 8.32366 10.3482 7.95536 10.1875C7.59375 10.0201 7.3058 9.85603 7.09152 9.69531C6.87723 9.5346 6.59933 9.31027 6.25781 9.02232C5.19978 8.13839 3.77344 7.0067 1.97879 5.62723C1.73103 5.42634 1.5 5.20536 1.28571 4.96429V12.6786C1.28571 12.7656 1.31585 12.8426 1.37612 12.9096C1.44308 12.9699 1.52009 13 1.60714 13H16.3929C16.4799 13 16.5536 12.9699 16.6138 12.9096C16.6808 12.8426 16.7143 12.7656 16.7143 12.6786ZM16.7143 2.12165C16.7143 2.10826 16.7143 2.07143 16.7143 2.01116C16.7143 1.95089 16.7143 1.90737 16.7143 1.88058C16.7143 1.8471 16.7109 1.80357 16.7042 1.75C16.7042 1.68973 16.6942 1.6462 16.6741 1.61942C16.6607 1.59263 16.644 1.5625 16.6239 1.52902C16.6038 1.49554 16.5737 1.4721 16.5335 1.45871C16.4933 1.43862 16.4464 1.42857 16.3929 1.42857H1.60714C1.52009 1.42857 1.44308 1.46205 1.37612 1.52902C1.31585 1.58929 1.28571 1.66295 1.28571 1.75C1.28571 2.875 1.7779 3.82589 2.76228 4.60268C4.05469 5.62054 5.39732 6.68192 6.79018 7.78683C6.83036 7.82031 6.94754 7.92076 7.14174 8.08817C7.33594 8.24888 7.48996 8.37277 7.60379 8.45982C7.71763 8.54688 7.86496 8.65402 8.04576 8.78125C8.23326 8.90179 8.40402 8.99219 8.55804 9.05246C8.71205 9.11272 8.85603 9.14286 8.98996 9.14286H9H9.01004C9.14397 9.14286 9.28795 9.11272 9.44196 9.05246C9.59598 8.99219 9.76339 8.90179 9.9442 8.78125C10.1317 8.65402 10.2824 8.54688 10.3962 8.45982C10.51 8.37277 10.6641 8.24888 10.8583 8.08817C11.0525 7.92076 11.1696 7.82031 11.2098 7.78683C12.6027 6.68192 13.9453 5.62054 15.2377 4.60268C15.5993 4.31473 15.9342 3.92969 16.2422 3.44754C16.5569 2.9587 16.7143 2.51674 16.7143 2.12165ZM18 1.75V12.6786C18 13.1205 17.8426 13.4989 17.5279 13.8136C17.2132 14.1283 16.8348 14.2857 16.3929 14.2857H1.60714C1.16518 14.2857 0.78683 14.1283 0.472098 13.8136C0.157366 13.4989 0 13.1205 0 12.6786V1.75C0 1.30804 0.157366 0.929688 0.472098 0.614956C0.78683 0.300223 1.16518 0.142857 1.60714 0.142857H16.3929C16.8348 0.142857 17.2132 0.300223 17.5279 0.614956C17.8426 0.929688 18 1.30804 18 1.75Z" fill="#54555E"/>
</svg>
