<svg width="18" height="12" viewBox="0 0 18 12" fill="none" xmlns="http://www.w3.org/2000/svg">
<path d="M11.2266 6.13281C11.2266 5.75781 11.1875 5.46875 11.1328 5.17969H5.72656V7.14844H8.97656C8.84375 7.98438 7.99219 9.61719 5.72656 9.61719C3.77344 9.61719 2.17969 8 2.17969 6C2.17969 4 3.77344 2.38281 5.72656 2.38281C6.84375 2.38281 7.58594 2.85937 8.00781 3.26562L9.5625 1.77344C8.5625 0.835937 7.27344 0.273438 5.72656 0.273438C2.5625 0.273438 0 2.83594 0 6C0 9.16406 2.5625 11.7266 5.72656 11.7266C9.03125 11.7266 11.2266 9.40625 11.2266 6.13281ZM18 5.17969H16.3672V3.54687H14.7266V5.17969H13.0938V6.82031H14.7266V8.45312H16.3672V6.82031H18V5.17969Z" fill="#DE4B39"/>
</svg>
