<svg width="10" height="16" viewBox="0 0 10 16" fill="none" xmlns="http://www.w3.org/2000/svg">
<path d="M8.90179 4.33929C8.82143 4.25893 8.71429 4.20536 8.59821 4.20536C8.5625 4.20536 8.52679 4.21429 8.49107 4.22321L4.95536 5.09821L6.48214 0.964286C6.50893 0.910714 6.52679 0.857142 6.52679 0.803572C6.52679 0.598214 6.34821 0.428572 6.125 0.428572H3.19643C3.00893 0.428572 2.84821 0.544642 2.80357 0.714286L1.00893 8.08036C0.982143 8.20536 1.01786 8.33929 1.125 8.42857C1.19643 8.49107 1.30357 8.52679 1.40179 8.52679C1.4375 8.52679 1.47321 8.52679 1.50893 8.51786L5.13393 7.61607L3.375 14.8304C3.33036 15.0179 3.44643 15.2054 3.64286 15.2679C3.6875 15.2768 3.73214 15.2857 3.76786 15.2857C3.92857 15.2857 4.07143 15.1964 4.14286 15.0625L8.96429 4.73214C9.02679 4.59821 9 4.44643 8.90179 4.33929Z" fill="#2D95E3"/>
</svg>
