<svg width="14" height="15" viewBox="0 0 14 15" fill="none" xmlns="http://www.w3.org/2000/svg">
<path d="M9.14286 7.28571C9.14286 8.54464 8.11607 9.57143 6.85714 9.57143C5.59821 9.57143 4.57143 8.54464 4.57143 7.28571C4.57143 6.02679 5.59821 5 6.85714 5C8.11607 5 9.14286 6.02679 9.14286 7.28571ZM10.375 7.28571C10.375 5.33929 8.80357 3.76786 6.85714 3.76786C4.91071 3.76786 3.33929 5.33929 3.33929 7.28571C3.33929 9.23214 4.91071 10.8036 6.85714 10.8036C8.80357 10.8036 10.375 9.23214 10.375 7.28571ZM11.3393 3.625C11.3393 3.16964 10.9732 2.80357 10.5179 2.80357C10.0625 2.80357 9.69643 3.16964 9.69643 3.625C9.69643 4.08036 10.0625 4.44643 10.5179 4.44643C10.9732 4.44643 11.3393 4.08036 11.3393 3.625ZM6.85714 1.66071C7.85714 1.66071 10 1.58036 10.9018 1.9375C11.2143 2.0625 11.4464 2.21429 11.6875 2.45536C11.9286 2.69643 12.0804 2.92857 12.2054 3.24107C12.5625 4.14286 12.4821 6.28571 12.4821 7.28571C12.4821 8.28571 12.5625 10.4286 12.2054 11.3304C12.0804 11.6429 11.9286 11.875 11.6875 12.1161C11.4464 12.3571 11.2143 12.5089 10.9018 12.6339C10 12.9911 7.85714 12.9107 6.85714 12.9107C5.85714 12.9107 3.71429 12.9911 2.8125 12.6339C2.5 12.5089 2.26786 12.3571 2.02679 12.1161C1.78571 11.875 1.63393 11.6429 1.50893 11.3304C1.15179 10.4286 1.23214 8.28571 1.23214 7.28571C1.23214 6.28571 1.15179 4.14286 1.50893 3.24107C1.63393 2.92857 1.78571 2.69643 2.02679 2.45536C2.26786 2.21429 2.5 2.0625 2.8125 1.9375C3.71429 1.58036 5.85714 1.66071 6.85714 1.66071ZM13.7143 7.28571C13.7143 6.33929 13.7232 5.40179 13.6696 4.45536C13.6161 3.35714 13.3661 2.38393 12.5625 1.58036C11.7589 0.776786 10.7857 0.526786 9.6875 0.473214C8.74107 0.419642 7.80357 0.428572 6.85714 0.428572C5.91071 0.428572 4.97321 0.419642 4.02679 0.473214C2.92857 0.526786 1.95536 0.776786 1.15179 1.58036C0.348214 2.38393 0.0982143 3.35714 0.0446429 4.45536C-0.00892857 5.40179 0 6.33929 0 7.28571C0 8.23214 -0.00892857 9.16964 0.0446429 10.1161C0.0982143 11.2143 0.348214 12.1875 1.15179 12.9911C1.95536 13.7946 2.92857 14.0446 4.02679 14.0982C4.97321 14.1518 5.91071 14.1429 6.85714 14.1429C7.80357 14.1429 8.74107 14.1518 9.6875 14.0982C10.7857 14.0446 11.7589 13.7946 12.5625 12.9911C13.3661 12.1875 13.6161 11.2143 13.6696 10.1161C13.7232 9.16964 13.7143 8.23214 13.7143 7.28571Z" fill="white"/>
</svg>
