<svg width="12" height="12" viewBox="0 0 12 12" fill="none" xmlns="http://www.w3.org/2000/svg">
<path d="M8 6C8 7.10156 7.10156 8 6 8C4.89844 8 4 7.10156 4 6C4 4.89844 4.89844 4 6 4C7.10156 4 8 4.89844 8 6ZM9.07812 6C9.07812 4.29688 7.70313 2.92188 6 2.92188C4.29687 2.92188 2.92187 4.29688 2.92187 6C2.92187 7.70313 4.29687 9.07813 6 9.07813C7.70313 9.07813 9.07812 7.70313 9.07812 6ZM9.92188 2.79688C9.92188 2.39844 9.60156 2.07813 9.20313 2.07813C8.80469 2.07813 8.48437 2.39844 8.48437 2.79688C8.48437 3.19531 8.80469 3.51562 9.20313 3.51562C9.60156 3.51562 9.92188 3.19531 9.92188 2.79688ZM6 1.07812C6.875 1.07812 8.75 1.00781 9.53906 1.32031C9.8125 1.42969 10.0156 1.5625 10.2266 1.77344C10.4375 1.98437 10.5703 2.1875 10.6797 2.46094C10.9922 3.25 10.9219 5.125 10.9219 6C10.9219 6.875 10.9922 8.75 10.6797 9.53906C10.5703 9.8125 10.4375 10.0156 10.2266 10.2266C10.0156 10.4375 9.8125 10.5703 9.53906 10.6797C8.75 10.9922 6.875 10.9219 6 10.9219C5.125 10.9219 3.25 10.9922 2.46094 10.6797C2.1875 10.5703 1.98437 10.4375 1.77344 10.2266C1.5625 10.0156 1.42969 9.8125 1.32031 9.53906C1.00781 8.75 1.07812 6.875 1.07812 6C1.07812 5.125 1.00781 3.25 1.32031 2.46094C1.42969 2.1875 1.5625 1.98437 1.77344 1.77344C1.98437 1.5625 2.1875 1.42969 2.46094 1.32031C3.25 1.00781 5.125 1.07812 6 1.07812ZM12 6C12 5.17188 12.0078 4.35156 11.9609 3.52344C11.9141 2.5625 11.6953 1.71094 10.9922 1.00781C10.2891 0.304688 9.4375 0.0859376 8.47656 0.0390624C7.64844 -0.00781286 6.82812 2.38419e-07 6 2.38419e-07C5.17187 2.38419e-07 4.35156 -0.00781286 3.52344 0.0390624C2.5625 0.0859376 1.71094 0.304688 1.00781 1.00781C0.304688 1.71094 0.0859375 2.5625 0.0390625 3.52344C-0.0078125 4.35156 0 5.17188 0 6C0 6.82813 -0.0078125 7.64844 0.0390625 8.47656C0.0859375 9.4375 0.304688 10.2891 1.00781 10.9922C1.71094 11.6953 2.5625 11.9141 3.52344 11.9609C4.35156 12.0078 5.17187 12 6 12C6.82812 12 7.64844 12.0078 8.47656 11.9609C9.4375 11.9141 10.2891 11.6953 10.9922 10.9922C11.6953 10.2891 11.9141 9.4375 11.9609 8.47656C12.0078 7.64844 12 6.82813 12 6Z" fill="#C13282"/>
</svg>
