<svg width="15" height="12" viewBox="0 0 15 12" fill="none" xmlns="http://www.w3.org/2000/svg">
<path d="M3.20313 3.21094C3.40104 3.01302 3.5 2.77604 3.5 2.5C3.5 2.22396 3.40104 1.98958 3.20313 1.79687C3.01042 1.59896 2.77604 1.5 2.5 1.5C2.22396 1.5 1.98698 1.59896 1.78906 1.79687C1.59635 1.98958 1.5 2.22396 1.5 2.5C1.5 2.77604 1.59635 3.01302 1.78906 3.21094C1.98698 3.40365 2.22396 3.5 2.5 3.5C2.77604 3.5 3.01042 3.40365 3.20313 3.21094ZM11.8359 7C11.8359 7.27604 11.7396 7.51042 11.5469 7.70313L7.71094 11.5469C7.50781 11.7396 7.27083 11.8359 7 11.8359C6.72396 11.8359 6.48958 11.7396 6.29688 11.5469L0.710938 5.95313C0.513021 5.76042 0.34375 5.4974 0.203125 5.16406C0.0677083 4.83073 0 4.52604 0 4.25V1C0 0.729166 0.0989583 0.494792 0.296875 0.296875C0.494792 0.0989586 0.729167 2.38419e-07 1 2.38419e-07H4.25C4.52604 2.38419e-07 4.83073 0.0703125 5.16406 0.210937C5.4974 0.346354 5.76302 0.513021 5.96094 0.710938L11.5469 6.28906C11.7396 6.49219 11.8359 6.72917 11.8359 7ZM14.8359 7C14.8359 7.27604 14.7396 7.51042 14.5469 7.70313L10.7109 11.5469C10.5078 11.7396 10.2708 11.8359 10 11.8359C9.8125 11.8359 9.65885 11.7995 9.53906 11.7266C9.41927 11.6536 9.28125 11.5365 9.125 11.375L12.7969 7.70313C12.9896 7.51042 13.0859 7.27604 13.0859 7C13.0859 6.72917 12.9896 6.49219 12.7969 6.28906L7.21094 0.710938C7.01302 0.513021 6.7474 0.346354 6.41406 0.210937C6.08073 0.0703125 5.77604 2.38419e-07 5.5 2.38419e-07H7.25C7.52604 2.38419e-07 7.83073 0.0703125 8.16406 0.210937C8.4974 0.346354 8.76302 0.513021 8.96094 0.710938L14.5469 6.28906C14.7396 6.49219 14.8359 6.72917 14.8359 7Z" fill="#171821"/>
</svg>
