<svg width="12" height="12" viewBox="0 0 12 12" fill="none" xmlns="http://www.w3.org/2000/svg">
<path d="M1.85156 10.0469V4.625H3.65625V10.0469H1.85156ZM3.77344 2.95313C3.77344 3.46875 3.38281 3.89062 2.75 3.89062H2.74219C2.13281 3.89062 1.74219 3.46875 1.74219 2.95313C1.74219 2.42187 2.14844 2.01562 2.76563 2.01562C3.38281 2.01562 3.76562 2.42187 3.77344 2.95313ZM8.34375 10.0469V7.14844C8.34375 6.41406 8.08594 5.92188 7.4375 5.92188C6.9375 5.92188 6.64063 6.25781 6.50781 6.57813C6.46094 6.69531 6.45312 6.85937 6.45312 7.01563V10.0469H4.64844C4.67188 5.13281 4.64844 4.625 4.64844 4.625H6.45312V5.41406H6.4375C6.67188 5.03906 7.10156 4.5 8.07031 4.5C9.25781 4.5 10.1484 5.27344 10.1484 6.9375V10.0469H8.34375ZM12 2.25C12 1.00781 10.9922 2.38419e-07 9.75 2.38419e-07H2.25C1.00781 2.38419e-07 0 1.00781 0 2.25V9.75C0 10.9922 1.00781 12 2.25 12H9.75C10.9922 12 12 10.9922 12 9.75V2.25Z" fill="#0077B5"/>
</svg>
