<svg width="12" height="12" viewBox="0 0 12 12" fill="none" xmlns="http://www.w3.org/2000/svg">
<path d="M12 6C12 2.6875 9.3125 2.38419e-07 6 2.38419e-07C2.6875 2.38419e-07 0 2.6875 0 6C0 8.46094 1.47656 10.5703 3.59375 11.5C3.57813 11.0781 3.58594 10.5703 3.69531 10.1172C3.69531 10.1172 3.8125 9.63281 4.46875 6.85156C4.27344 6.46875 4.27344 5.89844 4.27344 5.89844C4.27344 5.00781 4.78906 4.34375 5.42969 4.34375C5.97656 4.34375 6.24219 4.75781 6.24219 5.25C6.24219 5.79687 5.89063 6.61719 5.71094 7.375C5.5625 8.01562 6.03125 8.53125 6.65625 8.53125C7.79687 8.53125 8.5625 7.07031 8.5625 5.34375C8.5625 4.02344 7.67188 3.03906 6.0625 3.03906C4.24219 3.03906 3.10938 4.39844 3.10938 5.91406C3.10938 6.4375 3.26563 6.80469 3.50781 7.09375C3.61719 7.22656 3.63281 7.27344 3.59375 7.42969C3.5625 7.53906 3.5 7.80469 3.46875 7.90625C3.42969 8.0625 3.30469 8.11719 3.17188 8.0625C2.33594 7.71875 1.94531 6.79688 1.94531 5.76562C1.94531 4.0625 3.38281 2.01562 6.22656 2.01562C8.52344 2.01562 10.0313 3.67969 10.0313 5.45312C10.0313 7.8125 8.71875 9.57031 6.78906 9.57031C6.14062 9.57031 5.53125 9.21875 5.32813 8.82031C4.97656 10.2031 4.90625 10.4687 4.90625 10.4687C4.78125 10.9297 4.52344 11.3906 4.29687 11.75C4.84375 11.9141 5.40625 12 6 12C9.3125 12 12 9.3125 12 6Z" fill="#BD081C"/>
</svg>
