<svg width="13" height="10" viewBox="0 0 13 10" fill="none" xmlns="http://www.w3.org/2000/svg">
<path d="M12.6563 1.1875C12.3073 1.69792 11.8854 2.13281 11.3906 2.49219C11.3958 2.5651 11.3984 2.67448 11.3984 2.82031C11.3984 3.4974 11.2995 4.17448 11.1016 4.85156C10.9036 5.52344 10.6016 6.16927 10.1953 6.78906C9.79427 7.40885 9.3151 7.95833 8.75781 8.4375C8.20052 8.91146 7.52865 9.29167 6.74219 9.57812C5.95573 9.85938 5.11458 10 4.21875 10C2.80729 10 1.51562 9.6224 0.34375 8.86719C0.526042 8.88802 0.729167 8.89844 0.953125 8.89844C2.125 8.89844 3.16927 8.53906 4.08594 7.82031C3.53906 7.8099 3.04948 7.64323 2.61719 7.32031C2.1849 6.99219 1.88802 6.57552 1.72656 6.07031C1.89844 6.09635 2.05729 6.10937 2.20312 6.10937C2.42708 6.10937 2.64844 6.08073 2.86719 6.02344C2.28385 5.90365 1.79948 5.61458 1.41406 5.15625C1.03385 4.69271 0.84375 4.15625 0.84375 3.54688V3.51563C1.19792 3.71354 1.57813 3.82031 1.98437 3.83594C1.64062 3.60677 1.36719 3.30729 1.16406 2.9375C0.960937 2.56771 0.859375 2.16667 0.859375 1.73438C0.859375 1.27604 0.973958 0.851562 1.20312 0.460937C1.83333 1.23698 2.59896 1.85937 3.5 2.32812C4.40625 2.79167 5.375 3.04948 6.40625 3.10156C6.36458 2.90365 6.34375 2.71094 6.34375 2.52344C6.34375 1.82552 6.58854 1.23177 7.07813 0.742187C7.57292 0.247396 8.16927 -2.38419e-07 8.86719 -2.38419e-07C9.59635 -2.38419e-07 10.2109 0.265625 10.7109 0.796875C11.2786 0.6875 11.8125 0.484375 12.3125 0.1875C12.1198 0.786458 11.75 1.25 11.2031 1.57812C11.6875 1.52604 12.1719 1.39583 12.6563 1.1875Z" fill="#55ACEE"/>
</svg>
